<?xml version="1.0" encoding="UTF-8"?>
<svg width="24px" height="24px" viewBox="0 0 24 24" version="1.1" xmlns="http://www.w3.org/2000/svg" xmlns:xlink="http://www.w3.org/1999/xlink">
    <!-- Generator: Sketch 52.4 (67378) - http://www.bohemiancoding.com/sketch -->
    <title>Poi/app - icon</title>
    <desc>Created with Sketch.</desc>
    <defs>
        <path d="M18.7021256,9.37949723 C18.7021256,4.21935225 14.5190071,0.0359222986 9.35855069,0.0359222986 C4.19840571,0.0359222986 0.0149757627,4.21935225 0.0149757627,9.37949723 C0.0149757627,11.5864496 0.782394717,13.6140054 2.06184158,15.2126911 C4.47341827,18.2275512 7.88288876,22.4860412 8.99352836,23.8729392 C9.08229232,23.9835048 9.21652835,24.0479755 9.35823924,24.048287 C9.50026158,24.048287 9.63480905,23.9841277 9.72326156,23.8732507 C10.8332783,22.4866641 14.2418144,18.2300428 16.6543254,15.2167399 C17.9340838,13.6155626 18.7021256,11.5880069 18.7021256,9.37949723 Z" id="path-1"></path>
        <path d="M3.375,4.5 C4.09875,4.5 4.6875,3.91125 4.6875,3.1875 C4.6875,2.46375 4.09875,1.875 3.375,1.875 C2.65125,1.875 2.0625,2.46375 2.0625,3.1875 C2.0625,3.91125 2.65125,4.5 3.375,4.5 Z M3.375,2.625 C3.68625,2.625 3.9375,2.87625 3.9375,3.1875 C3.9375,3.49875 3.68625,3.75 3.375,3.75 C3.06375,3.75 2.8125,3.49875 2.8125,3.1875 C2.8125,2.87625 3.06375,2.625 3.375,2.625 Z M3.375,5.15625 C2.4975,5.15625 0.75,5.595 0.75,6.46875 L0.75,6.75 C0.75,6.95625 0.91875,7.125 1.125,7.125 L5.625,7.125 C5.83125,7.125 6,6.95625 6,6.75 L6,6.46875 C6,5.595 4.2525,5.15625 3.375,5.15625 Z M1.6275,6.375 C1.9425,6.1575 2.70375,5.90625 3.375,5.90625 C4.04625,5.90625 4.8075,6.1575 5.1225,6.375 L1.6275,6.375 Z M6.015,5.17875 C6.45,5.49375 6.75,5.91375 6.75,6.46875 L6.75,7.125 L7.875,7.125 C8.08125,7.125 8.25,6.95625 8.25,6.75 L8.25,6.46875 C8.25,5.71125 6.9375,5.28 6.015,5.17875 Z M5.625,4.5 C6.34875,4.5 6.9375,3.91125 6.9375,3.1875 C6.9375,2.46375 6.34875,1.875 5.625,1.875 C5.4225,1.875 5.235,1.92375 5.0625,2.00625 C5.29875,2.34 5.4375,2.74875 5.4375,3.1875 C5.4375,3.62625 5.29875,4.035 5.0625,4.36875 C5.235,4.45125 5.4225,4.5 5.625,4.5 Z" id="path-3"></path>
    </defs>
    <g id="Poi/app---icon" stroke="none" stroke-width="1" fill="none" fill-rule="evenodd">
        <g id="concpet-1" transform="translate(11.797738, 12.453748) scale(-1, 1) translate(-11.797738, -12.453748) translate(2.297738, -0.046252)">
            <mask id="mask-2" fill="white">
                <use xlink:href="#path-1"></use>
            </mask>
            <use id="Shape" fill="#25C27A" fill-rule="nonzero" xlink:href="#path-1"></use>
            <path d="M10.7284995,18.4354997 C10.8245124,18.3155882 12.3339678,16.4304276 12.8030915,15.8445296 C13.5265586,14.9409771 14.1158753,14.204944 14.6242391,13.5699814 C14.7746433,13.3821218 15.0488603,13.3517581 15.23672,13.5021623 C15.4245796,13.6525666 15.4549432,13.9267836 15.304539,14.1146432 C14.7961659,14.7496174 14.206842,15.4856595 13.4837532,16.3887396 C13.0142415,16.9751222 11.5047846,18.8602845 11.4087735,18.9801937 C10.6839037,19.8854913 10.2464186,20.4318951 9.97940872,20.7654317 C9.82867768,20.9543762 9.59988068,21.0639249 9.35735372,21.0639239 C9.11669159,21.0633949 8.88898802,20.9539494 8.73796059,20.765827 C7.28453853,18.9508835 4.92302876,16.0007566 3.41179324,14.1114682 C2.33860029,12.7704995 1.74351232,11.1083232 1.74351232,9.35716297 C1.74351232,5.15162323 5.15301095,1.7421246 9.35855069,1.7421246 C9.59920119,1.7421246 9.79428697,1.93721037 9.79428697,2.17786087 C9.79428697,2.41851138 9.59920119,2.61359715 9.35855069,2.61359715 C5.63431196,2.61359715 2.61498488,5.63292423 2.61498488,9.35716297 C2.61498488,10.9083984 3.14149221,12.379018 4.09226439,13.5670204 C5.58304718,15.4307396 7.90125572,18.3267905 9.35851737,20.1465615 C9.63001103,19.8074342 10.0553328,19.2762246 10.7284995,18.4354997 Z" id="Shape-Copy" fill="#FFFFFF" fill-rule="nonzero" mask="url(#mask-2)"></path>
            <g id="icon/social/group_24px" mask="url(#mask-2)">
                <g transform="translate(4.877390, 4.631872)">
                    <mask id="mask-4" fill="white">
                        <use xlink:href="#path-3"></use>
                    </mask>
                    <g id="icon/social/people_outline_24px" stroke="none" fill="none" fill-rule="nonzero"></g>
                    <g id="✱-/-Color-/-Icons-/-White-/-Active-" stroke="none" fill="none" mask="url(#mask-4)" fill-rule="evenodd">
                        <rect id="Rectangle" fill="#FFFFFF" x="0" y="0" width="9" height="9"></rect>
                    </g>
                </g>
            </g>
        </g>
    </g>
</svg>