<?xml version="1.0" encoding="UTF-8"?>
<svg width="72px" height="72px" viewBox="0 0 72 72" version="1.1" xmlns="http://www.w3.org/2000/svg" xmlns:xlink="http://www.w3.org/1999/xlink">
    <!-- Generator: Sketch 52.5 (67469) - http://www.bohemiancoding.com/sketch -->
    <title>Teamwork Dp</title>
    <desc>Created with Sketch.</desc>
    <defs>
        <path d="M56.1063768,28.1384917 C56.1063768,12.6580567 43.5570214,0.107766896 28.0756521,0.107766896 C12.5952171,0.107766896 0.0449272881,12.6580567 0.0449272881,28.1384917 C0.0449272881,34.7593489 2.34718415,40.8420161 6.18552473,45.6380732 C13.4202548,54.6826537 23.6486663,67.4581237 26.9805851,71.6188176 C27.246877,71.9505145 27.6495851,72.1439265 28.0747177,72.1448609 C28.5007847,72.1448609 28.9044272,71.9523832 29.1697847,71.619752 C32.4998348,67.4599924 42.7254432,54.6901285 49.9629763,45.6502198 C53.8022513,40.8466879 56.1063768,34.7640207 56.1063768,28.1384917 Z" id="path-1"></path>
        <path d="M10.125,13.5 C12.29625,13.5 14.0625,11.73375 14.0625,9.5625 C14.0625,7.39125 12.29625,5.625 10.125,5.625 C7.95375,5.625 6.1875,7.39125 6.1875,9.5625 C6.1875,11.73375 7.95375,13.5 10.125,13.5 Z M10.125,7.875 C11.05875,7.875 11.8125,8.62875 11.8125,9.5625 C11.8125,10.49625 11.05875,11.25 10.125,11.25 C9.19125,11.25 8.4375,10.49625 8.4375,9.5625 C8.4375,8.62875 9.19125,7.875 10.125,7.875 Z M10.125,15.46875 C7.4925,15.46875 2.25,16.785 2.25,19.40625 L2.25,20.25 C2.25,20.86875 2.75625,21.375 3.375,21.375 L16.875,21.375 C17.49375,21.375 18,20.86875 18,20.25 L18,19.40625 C18,16.785 12.7575,15.46875 10.125,15.46875 Z M4.8825,19.125 C5.8275,18.4725 8.11125,17.71875 10.125,17.71875 C12.13875,17.71875 14.4225,18.4725 15.3675,19.125 L4.8825,19.125 Z M18.045,15.53625 C19.35,16.48125 20.25,17.74125 20.25,19.40625 L20.25,21.375 L23.625,21.375 C24.24375,21.375 24.75,20.86875 24.75,20.25 L24.75,19.40625 C24.75,17.13375 20.8125,15.84 18.045,15.53625 Z M16.875,13.5 C19.04625,13.5 20.8125,11.73375 20.8125,9.5625 C20.8125,7.39125 19.04625,5.625 16.875,5.625 C16.2675,5.625 15.705,5.77125 15.1875,6.01875 C15.89625,7.02 16.3125,8.24625 16.3125,9.5625 C16.3125,10.87875 15.89625,12.105 15.1875,13.10625 C15.705,13.35375 16.2675,13.5 16.875,13.5 Z" id="path-3"></path>
    </defs>
    <g id="Teamwork-Dp" stroke="none" stroke-width="1" fill="none" fill-rule="evenodd">
        <g id="Poi/app---icon">
            <g id="concpet-1" transform="translate(35.393214, 37.361244) scale(-1, 1) translate(-35.393214, -37.361244) translate(6.893214, -0.138756)">
                <mask id="mask-2" fill="white">
                    <use xlink:href="#path-1"></use>
                </mask>
                <use id="Shape" fill="#25C27A" fill-rule="nonzero" xlink:href="#path-1"></use>
                <path d="M32.1854984,55.3064991 C32.4735371,54.9467645 37.0019035,49.2912829 38.4092746,47.5335889 C40.5796757,44.8229312 42.3476258,42.614832 43.8727174,40.7099442 C44.32393,40.1463653 45.146581,40.0552744 45.7101599,40.506487 C46.2737388,40.9576997 46.3648297,41.7803507 45.9136171,42.3439296 C44.3884976,44.2488522 42.6205259,46.4569785 40.4512596,49.1662188 C39.0427246,50.9253665 34.5143538,56.5808536 34.2263206,56.9405812 C32.051711,59.6564739 30.7392558,61.2956853 29.9382262,62.296295 C29.486033,62.8631287 28.799642,63.1917747 28.0720612,63.1917716 C27.3500748,63.1901848 26.6669641,62.8618482 26.2138818,62.297481 C21.8536156,56.8526505 14.7690863,48.0022698 10.2353797,42.3344046 C7.01580087,38.3114985 5.23053696,33.3249696 5.23053696,28.0714889 C5.23053696,15.4548697 15.4590329,5.22637379 28.0756521,5.22637379 C28.7976036,5.22637379 29.3828609,5.81163112 29.3828609,6.53358262 C29.3828609,7.25553413 28.7976036,7.84079146 28.0756521,7.84079146 C16.9029359,7.84079146 7.84495463,16.8987727 7.84495463,28.0714889 C7.84495463,32.7251953 9.42447664,37.1370541 12.2767932,40.7010612 C16.7491416,46.2922187 23.7037672,54.9803714 28.0755521,60.4396845 C28.8900331,59.4223025 30.1659983,57.8286738 32.1854984,55.3064991 Z" id="Shape-Copy" fill="#FFFFFF" fill-rule="nonzero" mask="url(#mask-2)"></path>
                <g id="icon/social/group_24px" mask="url(#mask-2)">
                    <g transform="translate(14.632170, 13.895617)">
                        <mask id="mask-4" fill="white">
                            <use xlink:href="#path-3"></use>
                        </mask>
                        <g id="icon/social/people_outline_24px" stroke="none" fill="none" fill-rule="nonzero"></g>
                        <g id="✱-/-Color-/-Icons-/-White-/-Active-" stroke="none" fill="none" mask="url(#mask-4)" fill-rule="evenodd">
                            <rect id="Rectangle" fill="#FFFFFF" x="0" y="0" width="27" height="27"></rect>
                        </g>
                    </g>
                </g>
            </g>
        </g>
    </g>
</svg>